# xmcd
#
# Track frame offsets: 
#        150
#        19631
#        36815
#        54886
#        79356
#        97342
#        112738
#        132425
#        152656
#        169598
#        189074
#        206153
#
# Disc length: 3059 seconds
#
# Revision: 0
# Processed by: cddbd v1.5.2PL0 Copyright (c) Steve Scherf et al.
# Submitted via: ExactAudioCopy v1.3
#
DISCID=930bf10c
DTITLE=Charles Wesley Godwin - Seneca
DYEAR=2019
DGENRE=Country
TTITLE0=(Windmill) Keep on Turning
TTITLE1=Coal Country
TTITLE2=Hardwood Floors
TTITLE3=Seneca Creek
TTITLE4=Strawberry Queen
TTITLE5=Shrinks and Pills
TTITLE6=The Last Bite
TTITLE7=Sorry for the Wait
TTITLE8=Half a Heart
TTITLE9=Pour it On
TTITLE10=Here in Eden
TTITLE11=Seneca Creek (Acoustic)
EXTD=
EXTT0=
EXTT1=
EXTT2=
EXTT3=
EXTT4=
EXTT5=
EXTT6=
EXTT7=
EXTT8=
EXTT9=
EXTT10=
EXTT11=
PLAYORDER=
